<svg width="765.725px" height="121.39999999999999px" xmlns="http://www.w3.org/2000/svg" viewBox="-132.8625 14.300000000000004 765.725 121.39999999999999" style="background: none;" preserveAspectRatio="xMidYMid"><defs><filter id="editing-lego" x="-100%" y="-100%" width="300%" height="300%"><feFlood flood-color="#ffffff" result="f1"></feFlood><feFlood flood-color="#0a0a0a" result="f2"></feFlood><feMorphology operator="dilate" radius="3" in="SourceAlpha"></feMorphology><feConvolveMatrix order="5,5" divisor="1" result="cm1" kernelMatrix="0 1 1 1 0  1 0 0 0 1  1 0 0 0 1  1 0 0 0 1  0 1 1 1 0"></feConvolveMatrix><feComposite operator="in" in="f1" in2="cm1" result="c1"></feComposite><feMorphology operator="dilate" radius="3"></feMorphology><feConvolveMatrix order="5,5" divisor="1" result="cm2" kernelMatrix="0 1 1 1 0  1 0 0 0 1  1 0 0 0 1  1 0 0 0 1  0 1 1 1 0"></feConvolveMatrix><feComposite operator="in" in="f2" in2="cm2" result="c2"></feComposite><feMerge><feMergeNode in="c2"></feMergeNode><feMergeNode in="c1"></feMergeNode><feMergeNode in="SourceGraphic"></feMergeNode></feMerge></filter></defs><g filter="url(#editing-lego)"><g transform="translate(-24.56002938747406, 104.79000091552734)"><path d="M34.50-13.25L34.50-13.25L34.50-13.25Q36.16-12.03 36.16-9.44L36.16-9.44L36.16-9.44Q36.16-6.85 35.04-5.02L35.04-5.02L35.04-5.02Q33.92-3.20 31.74-1.79L31.74-1.79L31.74-1.79Q27.07 1.22 18.91 1.22L18.91 1.22L18.91 1.22Q10.75 1.22 6.30-3.04L6.30-3.04L6.30-3.04Q1.86-7.30 1.86-14.85L1.86-14.85L1.86-14.85Q1.86-25.54 7.42-33.66L7.42-33.66L7.42-33.66Q11.65-39.68 19.20-42.24L19.20-42.24L19.20-42.24Q23.10-43.52 26.94-43.52L26.94-43.52L26.94-43.52Q30.78-43.52 33.15-43.01L33.15-43.01L33.15-43.01Q35.52-42.50 37.31-41.47L37.31-41.47L37.31-41.47Q41.22-39.23 41.22-35.65L41.22-35.65L41.22-35.65Q41.22-32.38 38.14-29.95L38.14-29.95L38.14-29.95Q35.33-27.78 33.02-27.78L33.02-27.78L33.02-27.78Q30.72-27.78 29.76-28.10L29.76-28.10L29.76-28.10Q30.02-30.40 30.02-31.90L30.02-31.90L30.02-31.90Q30.02-33.41 29.95-34.50L29.95-34.50L29.95-34.50Q29.89-35.58 29.57-36.61L29.57-36.61L29.57-36.61Q28.93-38.98 26.98-38.98L26.98-38.98L26.98-38.98Q25.02-38.98 23.07-37.15L23.07-37.15L23.07-37.15Q21.12-35.33 19.46-32.26L19.46-32.26L19.46-32.26Q15.68-25.28 15.68-17.02L15.68-17.02L15.68-17.02Q15.68-13.06 17.92-10.78L17.92-10.78L17.92-10.78Q20.16-8.51 24.96-8.51L24.96-8.51L24.96-8.51Q28.54-8.51 31.94-10.88L31.94-10.88L31.94-10.88Q33.41-11.90 34.50-13.25ZM73.66-7.10L73.66-7.10L73.66-7.10Q73.66-4.29 76.54-3.46L76.54-3.46L76.54-3.46Q75.84-1.09 73.09 0.19L73.09 0.19L73.09 0.19Q70.78 1.28 68.26 1.28L68.26 1.28L68.26 1.28Q65.73 1.28 64.42 0.61L64.42 0.61L64.42 0.61Q63.10-0.06 62.40-1.15L62.40-1.15L62.40-1.15Q61.25-2.82 61.25-5.95L61.25-5.95L61.25-5.95Q61.25-7.81 62.27-12.93L62.27-12.93L63.17-17.79L63.17-17.79Q64.26-23.36 64.26-25.41L64.26-25.41L64.26-25.41Q64.26-28.99 62.27-28.99L62.27-28.99L62.27-28.99Q59.78-28.99 58.18-25.34L58.18-25.34L58.18-25.34Q57.54-23.94 57.09-21.82L57.09-21.82L52.74 0L39.87 1.28L48.90-44.80L61.76-46.08L61.25-43.52L61.25-43.52Q59.46-33.66 57.92-30.34L57.92-30.34L57.92-30.34Q61.50-33.92 68.10-33.92L68.10-33.92L68.10-33.92Q75.07-33.92 76.35-29.31L76.35-29.31L76.35-29.31Q76.80-27.84 76.80-26.56L76.80-26.56L76.80-26.56Q76.80-25.28 76.70-24.29L76.70-24.29L76.70-24.29Q76.61-23.30 76.29-21.50L76.29-21.50L75.46-16.90L73.98-9.66L73.98-9.66Q73.66-8.19 73.66-7.10ZM84.51-1.92L84.51-1.92L84.51-1.92Q83.01-3.58 82.34-6.21L82.34-6.21L82.34-6.21Q81.66-8.83 81.66-13.12L81.66-13.12L81.66-13.12Q81.66-17.41 83.14-21.31L83.14-21.31L83.14-21.31Q84.61-25.22 87.30-28.03L87.30-28.03L87.30-28.03Q92.80-33.92 101.89-33.92L101.89-33.92L101.89-33.92Q105.15-33.92 107.52-32.83L107.52-32.83L118.46-33.92L113.73-8.96L113.73-8.96Q113.54-8.19 113.54-6.78L113.54-6.78L113.54-6.78Q113.54-5.38 114.40-4.48L114.40-4.48L114.40-4.48Q115.26-3.58 116.54-3.46L116.54-3.46L116.54-3.46Q115.90-1.28 113.57 0L113.57 0L113.57 0Q111.23 1.28 108.61 1.28L108.61 1.28L108.61 1.28Q105.98 1.28 104.22 0.29L104.22 0.29L104.22 0.29Q102.46-0.70 101.95-2.37L101.95-2.37L101.95-2.37Q100.93-0.77 98.75 0.26L98.75 0.26L98.75 0.26Q96.58 1.28 93.66 1.28L93.66 1.28L93.66 1.28Q90.75 1.28 88.38 0.51L88.38 0.51L88.38 0.51Q86.02-0.26 84.51-1.92ZM98.02-27.90L98.02-27.90L98.02-27.90Q97.28-26.75 96.64-24.80L96.64-24.80L96.64-24.80Q96-22.85 94.94-17.63L94.94-17.63L94.94-17.63Q93.89-12.42 93.89-8.70L93.89-8.70L93.89-8.70Q93.89-4.99 94.46-3.90L94.46-3.90L94.46-3.90Q95.04-2.82 96.06-2.82L96.06-2.82L96.06-2.82Q98.11-2.82 99.62-4.77L99.62-4.77L99.62-4.77Q101.12-6.72 101.70-10.18L101.70-10.18L105.09-28.93L105.09-28.93Q103.74-30.08 102.18-30.08L102.18-30.08L102.18-30.08Q100.61-30.08 99.68-29.57L99.68-29.57L99.68-29.57Q98.75-29.06 98.02-27.90ZM122.94-6.40L122.94-6.40L122.94-6.40Q122.94-8.13 123.84-12.48L123.84-12.48L127.23-29.76L123.46-29.76L123.71-31.68L123.71-31.68Q131.39-33.98 138.82-39.62L138.82-39.62L141.89-39.62L140.35-32.64L145.34-32.64L144.77-29.76L139.84-29.76L136.58-12.48L136.58-12.48Q135.74-8.51 135.74-7.17L135.74-7.17L135.74-7.17Q135.74-4.10 138.43-3.46L138.43-3.46L138.43-3.46Q137.79-1.28 135.49 0L135.49 0L135.49 0Q133.18 1.28 129.92 1.28L129.92 1.28L129.92 1.28Q126.66 1.28 124.80-0.77L124.80-0.77L124.80-0.77Q122.94-2.82 122.94-6.40ZM159.81-39.68L159.81-39.68L159.81-39.68Q160.70-41.47 162.66-42.46L162.66-42.46L162.66-42.46Q164.61-43.46 167.30-43.46L167.30-43.46L167.30-43.46Q171.52-43.46 174.05-40.42L174.05-40.42L174.05-40.42Q176.58-37.38 176.58-30.72L176.58-30.72L176.58-7.87L191.23-42.18L198.78-42.18L200.51-9.79L200.32-7.94L215.55-42.18L224.32-42.18L203.84 0L190.21 0L188.93-19.46L180.48 0L165.06 0L163.14-30.72L163.14-30.72Q162.94-34.18 162.02-36.45L162.02-36.45L162.02-36.45Q161.09-38.72 159.81-39.68ZM236.93-3.52L236.93-3.52L236.93-3.52Q234.94 1.28 228.61 1.28L228.61 1.28L228.61 1.28Q225.34 1.28 223.30-0.96L223.30-0.96L223.30-0.96Q221.57-2.94 221.57-4.93L221.57-4.93L221.57-4.93Q221.57-10.11 223.94-20.22L223.94-20.22L226.30-32.64L239.30-33.92L235.39-13.70L235.39-13.70Q234.30-8.96 234.30-7.30L234.30-7.30L234.30-7.30Q234.30-3.65 236.93-3.52ZM227.46-41.54L227.46-41.54L227.46-41.54Q227.46-44.03 229.54-45.38L229.54-45.38L229.54-45.38Q231.62-46.72 234.62-46.72L234.62-46.72L234.62-46.72Q237.63-46.72 239.46-45.38L239.46-45.38L239.46-45.38Q241.28-44.03 241.28-41.54L241.28-41.54L241.28-41.54Q241.28-39.04 239.26-37.76L239.26-37.76L239.26-37.76Q237.25-36.48 234.24-36.48L234.24-36.48L234.24-36.48Q231.23-36.48 229.34-37.76L229.34-37.76L229.34-37.76Q227.46-39.04 227.46-41.54ZM243.39-6.40L243.39-6.40L243.39-6.40Q243.39-8.13 244.29-12.48L244.29-12.48L247.68-29.76L243.90-29.76L244.16-31.68L244.16-31.68Q251.84-33.98 259.26-39.62L259.26-39.62L262.34-39.62L260.80-32.64L265.79-32.64L265.22-29.76L260.29-29.76L257.02-12.48L257.02-12.48Q256.19-8.51 256.19-7.17L256.19-7.17L256.19-7.17Q256.19-4.10 258.88-3.46L258.88-3.46L258.88-3.46Q258.24-1.28 255.94 0L255.94 0L255.94 0Q253.63 1.28 250.37 1.28L250.37 1.28L250.37 1.28Q247.10 1.28 245.25-0.77L245.25-0.77L245.25-0.77Q243.39-2.82 243.39-6.40ZM297.66-7.10L297.66-7.10L297.66-7.10Q297.66-4.29 300.54-3.46L300.54-3.46L300.54-3.46Q299.84-1.09 297.09 0.19L297.09 0.19L297.09 0.19Q294.78 1.28 292.26 1.28L292.26 1.28L292.26 1.28Q289.73 1.28 288.42 0.61L288.42 0.61L288.42 0.61Q287.10-0.06 286.40-1.15L286.40-1.15L286.40-1.15Q285.25-2.82 285.25-5.95L285.25-5.95L285.25-5.95Q285.25-7.81 286.27-12.93L286.27-12.93L287.17-17.79L287.17-17.79Q288.26-23.36 288.26-25.41L288.26-25.41L288.26-25.41Q288.26-28.99 286.27-28.99L286.27-28.99L286.27-28.99Q283.78-28.99 282.18-25.34L282.18-25.34L282.18-25.34Q281.54-23.94 281.09-21.82L281.09-21.82L276.74 0L263.87 1.28L272.90-44.80L285.76-46.08L285.25-43.52L285.25-43.52Q283.46-33.66 281.92-30.34L281.92-30.34L281.92-30.34Q285.50-33.92 292.10-33.92L292.10-33.92L292.10-33.92Q299.07-33.92 300.35-29.31L300.35-29.31L300.35-29.31Q300.80-27.84 300.80-26.56L300.80-26.56L300.80-26.56Q300.80-25.28 300.70-24.29L300.70-24.29L300.70-24.29Q300.61-23.30 300.29-21.50L300.29-21.50L299.46-16.90L297.98-9.66L297.98-9.66Q297.66-8.19 297.66-7.10ZM347.01 1.28L347.01 1.28L347.01 1.28Q338.82 1.28 338.05-10.37L338.05-10.37L327.04-10.37L327.04-10.37Q325.76-7.42 324.86-4.86L324.86-4.86L323.20 0L314.24 0L334.40-42.24L348.16-42.24L350.85-11.14L350.85-11.14Q351.49-4.42 354.05-2.43L354.05-2.43L354.05-2.43Q352.19 1.28 347.01 1.28ZM332.54-23.17L329.02-15.04L337.86-15.04L337.09-31.49L337.09-33.22L332.54-23.17ZM384.83 1.28L384.83 1.28L384.83 1.28Q377.09 1.28 377.09-4.74L377.09-4.74L377.09-4.74Q377.15-6.40 377.66-9.22L377.66-9.22L378.82-15.10L378.82-15.10Q380.54-23.42 380.54-25.28L380.54-25.28L380.54-25.28Q380.54-28.99 378.37-28.99L378.37-28.99L378.37-28.99Q374.72-28.99 372.80-19.46L372.80-19.46L369.02 0L356.16 1.28L362.82-32.70L373.31-33.92L372.29-27.65L372.29-27.65Q375.30-33.92 384.51-33.92L384.51-33.92L384.51-33.92Q388.99-33.92 390.88-32.03L390.88-32.03L390.88-32.03Q392.77-30.14 392.77-25.92L392.77-25.92L392.77-25.92Q392.77-21.95 390.72-12.67L390.72-12.67L390.72-12.67Q389.76-8.51 389.76-6.94L389.76-6.94L389.76-6.94Q389.76-5.38 390.62-4.48L390.62-4.48L390.62-4.48Q391.49-3.58 392.77-3.46L392.77-3.46L392.77-3.46Q392.13-1.28 389.92 0L389.92 0L389.92 0Q387.71 1.28 384.83 1.28ZM418.24-7.23L418.24-7.23L418.24-7.23Q414.91-3.78 408.83-3.78L408.83-3.78L408.83-3.78Q401.22-3.78 399.62-9.34L399.62-9.34L399.62-9.34Q399.10-11.01 399.10-12.86L399.10-12.86L399.10-12.86Q399.10-14.72 399.49-16.64L399.49-16.64L402.50-32.64L415.49-33.92L411.97-15.30L411.97-15.30Q411.84-14.46 411.65-13.57L411.65-13.57L411.65-13.57Q411.46-12.67 411.46-11.74L411.46-11.74L411.46-11.74Q411.46-10.82 411.78-10.21L411.78-10.21L411.78-10.21Q412.10-9.60 412.54-9.22L412.54-9.22L412.54-9.22Q413.31-8.70 414.69-8.70L414.69-8.70L414.69-8.70Q416.06-8.70 417.25-10.37L417.25-10.37L417.25-10.37Q418.43-12.03 419.01-14.91L419.01-14.91L422.53-32.64L435.14-33.92L430.34-8.77L430.34-8.77Q427.97 3.52 423.10 8.38L423.10 8.38L423.10 8.38Q420.61 10.88 417.38 11.87L417.38 11.87L417.38 11.87Q414.14 12.86 409.98 12.86L409.98 12.86L409.98 12.86Q403.26 12.86 399.42 10.75L399.42 10.75L399.42 10.75Q395.58 8.64 395.58 5.12L395.58 5.12L395.58 5.12Q395.58 2.50 397.57 0.99L397.57 0.99L397.57 0.99Q399.55-0.51 402.62-0.51L402.62-0.51L402.62-0.51Q405.31-0.51 407.36 0.64L407.36 0.64L407.36 0.64Q408.58 1.34 409.15 2.24L409.15 2.24L409.15 2.24Q407.68 3.52 407.68 5.63L407.68 5.63L407.68 5.63Q407.68 8.45 410.24 8.45L410.24 8.45L410.24 8.45Q414.46 8.45 416.90-1.28L416.90-1.28L416.90-1.28Q417.60-4.16 418.24-7.23ZM451.39 1.28L451.39 1.28L451.39 1.28Q437.31 1.28 437.31-11.97L437.31-11.97L437.31-11.97Q437.31-21.38 442.50-27.46L442.50-27.46L442.50-27.46Q448.00-33.92 457.54-33.92L457.54-33.92L457.54-33.92Q464.45-33.92 467.97-30.72L467.97-30.72L467.97-30.72Q471.49-27.52 471.49-20.80L471.49-20.80L471.49-20.80Q471.49-10.56 465.98-4.61L465.98-4.61L465.98-4.61Q460.61 1.28 451.39 1.28ZM453.06-26.56L453.06-26.56L453.06-26.56Q452.29-24.83 451.68-22.24L451.68-22.24L451.68-22.24Q451.07-19.65 450.30-15.55L450.30-15.55L450.30-15.55Q449.54-11.46 449.54-6.40L449.54-6.40L449.54-6.40Q449.54-4.74 450.08-3.65L450.08-3.65L450.08-3.65Q450.62-2.56 452.10-2.56L452.10-2.56L452.10-2.56Q453.57-2.56 454.50-3.26L454.50-3.26L454.50-3.26Q455.42-3.97 456.13-5.63L456.13-5.63L456.13-5.63Q457.41-8.58 458.43-14.05L458.43-14.05L458.43-14.05Q459.46-19.52 459.55-21.89L459.55-21.89L459.55-21.89Q459.65-24.26 459.65-26.02L459.65-26.02L459.65-26.02Q459.65-27.78 459.14-28.93L459.14-28.93L459.14-28.93Q458.62-30.08 457.18-30.08L457.18-30.08L457.18-30.08Q455.74-30.08 454.78-29.18L454.78-29.18L454.78-29.18Q453.82-28.29 453.06-26.56ZM502.34 1.28L502.34 1.28L502.34 1.28Q494.59 1.28 494.59-4.74L494.59-4.74L494.59-4.74Q494.66-6.40 495.17-9.22L495.17-9.22L496.32-15.10L496.32-15.10Q498.05-23.42 498.05-25.28L498.05-25.28L498.05-25.28Q498.05-28.99 495.87-28.99L495.87-28.99L495.87-28.99Q492.22-28.99 490.30-19.46L490.30-19.46L486.53 0L473.66 1.28L480.32-32.70L490.82-33.92L489.79-27.65L489.79-27.65Q492.80-33.92 502.02-33.92L502.02-33.92L502.02-33.92Q506.50-33.92 508.38-32.03L508.38-32.03L508.38-32.03Q510.27-30.14 510.27-25.92L510.27-25.92L510.27-25.92Q510.27-21.95 508.22-12.67L508.22-12.67L508.22-12.67Q507.26-8.51 507.26-6.94L507.26-6.94L507.26-6.94Q507.26-5.38 508.13-4.48L508.13-4.48L508.13-4.48Q508.99-3.58 510.27-3.46L510.27-3.46L510.27-3.46Q509.63-1.28 507.42 0L507.42 0L507.42 0Q505.22 1.28 502.34 1.28ZM541.31-10.82L541.31-10.82L541.31-10.82Q542.91-9.73 542.91-7.33L542.91-7.33L542.91-7.33Q542.91-4.93 541.70-3.39L541.70-3.39L541.70-3.39Q540.48-1.86 538.50-0.83L538.50-0.83L538.50-0.83Q534.40 1.28 529.98 1.28L529.98 1.28L529.98 1.28Q525.57 1.28 522.98 0.32L522.98 0.32L522.98 0.32Q520.38-0.64 518.66-2.43L518.66-2.43L518.66-2.43Q515.26-5.82 515.26-12.03L515.26-12.03L515.26-12.03Q515.26-21.70 520.51-27.58L520.51-27.58L520.51-27.58Q526.14-33.92 535.94-33.92L535.94-33.92L535.94-33.92Q542.02-33.92 545.02-31.36L545.02-31.36L545.02-31.36Q547.26-29.44 547.26-26.30L547.26-26.30L547.26-26.30Q547.26-15.04 527.81-15.04L527.81-15.04L527.81-15.04Q527.55-13.38 527.55-11.97L527.55-11.97L527.55-11.97Q527.55-9.02 528.86-7.90L528.86-7.90L528.86-7.90Q530.18-6.78 532.61-6.78L532.61-6.78L532.61-6.78Q535.04-6.78 537.63-7.90L537.63-7.90L537.63-7.90Q540.22-9.02 541.31-10.82ZM528.26-17.79L528.26-17.79L528.26-17.79Q532.80-17.79 535.42-20.61L535.42-20.61L535.42-20.61Q538.05-23.30 538.05-27.58L538.05-27.58L538.05-27.58Q538.05-29.06 537.50-29.86L537.50-29.86L537.50-29.86Q536.96-30.66 535.87-30.66L535.87-30.66L535.87-30.66Q534.78-30.66 533.86-30.24L533.86-30.24L533.86-30.24Q532.93-29.82 531.97-28.42L531.97-28.42L531.97-28.42Q529.60-25.22 528.26-17.79Z" fill="#0a0a0a"></path></g></g><style>text {
  font-size: 64px;
  font-family: Arial Black;
  dominant-baseline: central;
  text-anchor: middle;
}</style></svg>